<?xml version="1.0" encoding="UTF-8"?>
<svg width="355mm" height="170mm" version="1.1" viewBox="0 0 355 170" xmlns="http://www.w3.org/2000/svg">
 <g transform="translate(56.2 -125)">
  <g transform="matrix(-1.05 0 0 1.05 301 8.3)">
   <path transform="matrix(-.251 0 0 .251 347 111)" d="m920 0-15.1 16.2-25.6-6.78-1.13 23.2-23.2 7.3 7.76 13.1-18 10.6 15.4 8.59 1.64 15.5 7.87 6.65 4.18 27.1 15.6-1.01-0.314 11.8c-0.414 0.118-0.869 0.305-1.38 0.59-5.85 2.72-12 0.78-17.9-0.783-11.1-4.3-23.1-5.41-34.7-8.01-2.57-0.821-7.51 0.0908-5.65-3.87-1.02-3.36 6.65-3.3 1.35-5.62-3.68-1.46-5.21 1.49-2.75 3.75 2.24 7.38-11.6 3.92-6.46-1.58 6.39-3.69-9.3-5.23-2.94 0.106 1.2 3.46-1.76 4.21-4.3 3.67l-1.8-0.639c-0.575-0.315-1.03-0.703-1.25-1.14-1.09-3.33 5.96-5.05 0.41-6.74-4.2-1.2-4.89 1.97-2.28 4.1 0.769 3.91-2.68 2.42-5.07 2.07-4.74-3.26-8.93-1.32-14.2-3.09-9.29-2.41-19-4.32-27.5-8.92-4.69-2.97-9.63-7.86-8.97-13.9-2.36 2.08-2.46 11.1-3.68 15.8-1.43 9.64-3.38 19.2-4.24 29 1.82-4.26 6.26-8.82 11.6-9.98 8.36-2.32 17.1-0.986 25.7-0.799-2.15 3.28-5.82 6.95-6.79 11.5-0.796 2.73-5.02 0.136-7.15 0.713-5.67-0.116-13.8-3.64-17.3 2.69-0.819 3.6 0.876 7.49 1.14 10.6 4.23 3.06 12.3 3.29 15.4 5.47-1.28-2.97-11.5-4.85-4.42-6.24 3 0.213 5.99 0.606 8.99 0.916 1.86 3.99 4.88 8.99 9.51 9.33 4.01-3.54 10.8 1.4 16 1.15 4.69-0.144-0.233 6.91 5.52 5.32 3.97 1.75 4.05-2.05 5.58-3.75 0.495 2.54 0.467 6.12 5 5.24 3.69 2.06 3.99-8.44 4.9-2.05-1.34 3.54 3.8 2.88 6 3.17 2.3 0.607 0.84-3.55 2.25-4.03 5.28 0.452 10.8 0.711 15.9 2.02 4.63 5.15 10.9 9.7 18.2 8.84 6.17-0.37 11.5-3.93 15-8.87l52.9 39.4 48.2-43.5 13-6.84c6.51-3.42 11.2 4.58 28.1 18.2 35.8 29 47.3-1.35 70.2-2.54 25.8-1.35 21 9.47 39.2 23.2 23.1 17.4 46.1-21.4 46.1-21.4s-15.2 20.6-33 8.58c-16.4-11.1-12.4-33-40.2-40.6-23.9-6.5-29.6 16-49.6 7.29-15.4-6.72-16.2-34.2-31.1-43.5-3.5-2.2-15.2-7.87-28-12.7-0.372-1.6-0.957-3.54-1.84-5.96l9.24-7.77-9.78-22.7 2.16-9.82-14.2-11.2 0.209-14-27-2.63-0.883-12.5-24.3 4.65-6.43-11.8zm23.4 100c7.96 3.63 13.8 7.53 18.1 11.6l-45 44.7-37.4-13.2c-0.71-1.81-1.53-3.58-2.4-5.26 4.51-1.95 8.27 2.28 12.3 3.71l-0.115 4.29 47.5-27.5 6.93-18.3zm-151 28.6c0.356 0.0198 0.715 0.0612 1.08 0.125 4.57 0.626 13.9-1.95 10.7 5.75-0.236 2.46-0.479 4.93-0.719 7.39-4.36-0.495-8.74-0.913-13-1.9 4.93-2.25 3.46-10.4-2.35-9.56-5.79 0.564-3.07 7.48-2.83 9.22-1.08-0.209-4.89 0.453-3.74-1.86 1.31-4.95 5.54-9.46 10.9-9.17zm180 2.08c0.178 1.02 0.304 2.05 0.402 3.07l-43.2 51.2-48.3-27c0.0542-0.396 0.115-0.791 0.146-1.19 0.125-0.703 0.202-1.41 0.248-2.11l38.8 19.8 51.9-43.6zm-184 1.36c3.15 0.0371 7.08 3.2 2.34 6.63-1.6 0.599-3.88 0.337-4.69-1.39-1.6-3.82 0.189-5.26 2.35-5.24zm48.2 0.902c1.02 0.105 2.05 0.211 3.08 0.312l35.4 18c0.143 1.09 0.206 2.19 0.182 3.3l-38.7-21.6zm-4.73 1.08 9.28 6.91c-0.674 0.757-1.65 0.912-3.39 0.158-1.62-0.765-5.17 0.193-5.27-1.92-0.171-1.2-0.854-3.59-0.615-5.14zm27 1.73c1.88 0.365 3.76 0.767 5.61 1.26 1.47 0.519 2.78 1.25 3.96 2.14zm-101 6.17c1.19 0.0669 2.92 0.826 3.89 0.609 2.89-0.46 10.4 2.59 3.27 2.64-2.64-0.571-6.55-0.428-8.57-1.58 0.0318-0.224 0.065-0.448 0.0977-0.672 0.0618-0.819 0.588-1.03 1.3-0.988zm15.2 1.61c2.16 0.107 4.78 3.75 0.586 2.62-0.674-0.302-2.26-0.149-2.33-1.24 0.351-1.06 1.02-1.42 1.74-1.38zm9.17 0.949c1.18 0.0512 2.99 0.848 3.96 0.646 5.42 0.801 10.9 1.31 16.3 2.37 1.33 3.13-2.67 1.34-4.33 1.44-5.7-0.59-11.4-1.36-17-2.24 8e-3 -0.376 0.0252-0.751 0.0332-1.13h2e-3c-0.0664-0.883 0.413-1.12 1.12-1.09zm48.7 7.42c1.86-0.018 6.5 0.603 7.56 0.807 3.54 0.977 12.2-0.0334 12.4 2.77-6.39 0.0533-12.8-1.27-19-2.63-2.26-0.697-2.14-0.938-1.03-0.949zm-44.4 0.734c2.2 0.0261 6.6 1.13 8 1.06 2.36-0.484 10.9 1.79 5.11 3.13-4.5-0.742-9.41-0.567-13.6-2.59-1.39-1.24-0.867-1.61 0.451-1.6zm72 1.41 13.8 10.2c-1.62 2.66-3.97 4.84-7.07 6.12-3.93 1.59-8.79 0.44-12.4-1.42-4.06-1.41 1.62-2.79 2.52-4.6 2.08-2.8 3.27-6.65 3.21-10.4zm-28 4.6c3.31 0.111 8.52 2.23 5.95 2.43-2.54-0.526-6.9 0.445-8.26-1.73 0.32-0.554 1.21-0.74 2.31-0.703zm17 1.92c2.65 2e-3 6.32 1.15 1.44 2.16-1.04 0.261-2.15-0.0475-3.02-0.643-1.22-1.1-8e-3 -1.52 1.58-1.52z" fill="#0d0d0d"/>
   <ellipse transform="matrix(.512 .859 -.981 .194 0 0)" cx="164" cy="-41.6" rx="2.17" ry="1.41" fill="#fff"/>
  </g>
  <g transform="matrix(1.28 0 0 1.28 219 131)">
   <path transform="matrix(.207 0 0 .207 -222 -4.48)" d="m669 98.4c-4.63 0.327-3.86 5.15 1.98 7.16 7.19 2.48 17.5 9.35 10.3 14-7.14 4.67-23.7-3.52-27.2 14.7-3.38 17.5 15.2 20.3 23.6 28 7.04 7.93 11.9 10.6 8.47 18.5-1.08 1.42-2.21 2.78-3.42 4.01-0.0743-0.507-0.104-0.885-0.104-0.885s-0.406 0.866-1.03 2c-2.75 2.54-5.94 4.39-9.94 4.92-7.57-4.26-11.7-15.2-14.8-13.1-3.47 2.44 8.34 11.9 3.49 25.4-4.86 13.4-13.9-3.15-16.6-0.846-2.71 2.3 4.83 13 4.83 13l-10.7 22.8 14.8-2.42-2.51 21.4 17.3 17.5-38.7-8.25c-19.8 22.6-32.5 26.9-45.1 53.5l8.94 33.3c64.8 31.9 71.2 1.95 23.3-30.3l19.2-19.7c1.83 38.4-2.66 67.1-4.49 104l-37-0.92-19.7 211 47.2-153s74 8.65 90.5-12.7c1.32-1.71-3.11-26.4-13.9-30.6-8.84-3.54-24.4 13.2-23.5 11.4 5.96-0.439 11.5-2.51 16.6-5.59 0.291 1.66 0.585 3.42 0.887 5.4 6.57 43 28.4 101 28.4 101l22.4-14.4 1.93 65.9 28.9-110-27 4.91s2.34-45.6 7.99-65.9c5.34-19.2-10.6-31.6-10.6-31.6 9.78-2.98 22.8 0.247 18.3-9.72-8.2-0.548-29 2.7-23.1-12.2 24.9-12.7 49.8-25.3 74.7-37.9l123-25.2-84.4 5.65c12.5-6.28 25-12.6 37.5-18.8 9.71-10.4 21.8 2.92 30.5-7.92 7.2-3.5 13.1-17.4 22.3-11.4 18.5 6.22 19.2-26.1 0.178-19.5 10.2-8.52-8.76-17.1-8.4-4.12 10.6 4.46 0.0486 6.77-5.73 7.12 9.55-8.9-9.18-16.7-8.61-4.26 10 4.46 0.663 7.12-5.47 7.24 11.7-11.9-16.2-13.9-6.2-2.34 9.56 3.3-14.8 9.37-6.54 1.4 4.78-13.8-20.1-2.55-4.94 3.56-4.13 2.3-9.49 7.06-6.8 14.1-17 9.2-34.8 16.8-52.3 25.2-9.17 4.05-18.3 8.28-27.3 12.6l-50.3 3.36c5.07-5.84-2.33-9.38-10.3-9.33-3.74 0.0758-7.25 0.726-10.6 1.8l-23.2-19.8c0.736-17.3 5.16-20.1 8.81-28.8l7.23-4.6-4.7-12 1.41-13.3-8.06-10.7s7.57-10.1 5.06-13.4c-2.51-3.26-7.22 9.96-15.2 0.316-7.4-8.9 3.25-21.4 0.01-22.5-3.24-1.08-7.01 17.2-17.3 17.1-0.0631-4e-4 -0.121-5e-3 -0.184-6e-3 4.3-3.81 7.14-8.73 6.37-14.8-3.78-29.4-36.5-26.2-33.1-41.3s21-3.76 24.8-14.2c4.78-13.3-3.92-19.6-17.9-23.7-1.65-0.493-3-0.657-4.07-0.582zm72.1 233 6.19 2.6c-0.52 0.22-1.04 0.445-1.56 0.664-2.34-0.9-3.82-2.02-4.63-3.27z" fill="#0d0d0d"/>
   <path d="m-85.3 34.8s2.5-1.96 2.43-4.46c-0.0631-2.5-1.55-2.99-1.16-4.96s2.66-2.77 3.27-1.88c0.607 0.887-1.76 0.999-1.77 2.16-8e-3 1.16 2.04 2.67 1.62 4.33 0.112 2.37-1.93 5.31-1.93 5.31z"/>
   <path d="m-79.4 41c-1.7-0.859 2.96-3.45 1.15-4.79-2.01-1.49-4.43-2.27-4.16-5.83 0.233-3.09 2.3-1.98 3.61-3.35s0.643-2.86 0.427-4.02c-0.213-1.14 0.603-2.33 1.27-0.315 0.712 2.62 0.712 3.64-0.346 4.98-1.16 1.47-3.41 0.931-3.57 2.56-0.197 1.92 1.47 3.94 3.8 4.81 3.43 1.28-0.0406 5.6-0.0406 5.6z"/>
   <path d="m-88.2 43.3 2.07-4.62 9.11-2.22 2.43 2.78-0.0557 7.57 1.94-4.31 1.04 4.81-2.58 4.28-5.13 3.31-2.02-2.88 3.79-2.15-5.33 2.09-0.275-2.74 0.351-0.907 2.84-0.688-6.24 0.447 3.46-6.35 3.99 4.76 2.41-6.8z" fill="#fff"/>
   <path d="m-93.3 71c0.851-3.49 4.12-6.1 7.75-5.99 3.09-0.163 6.46 0.173 9.06-1.89 3.15-2.59 5.46-5.8 9.88-5.89 2.23-0.0925 3.92 1.43 1.41 2.73-1.64 0.931-5.05 3.34-1.76 4.6 9.44-4.47 28.7-12.1 29.3-13.6 0 0-0.294-1.05 0.365-1.95 0.418-0.57 1.6-0.941 2.27-1.38 1.02-0.674 3.02-0.456 3.38-0.571 1.33-0.416 2.42-0.282 2.53-0.305 1.71-0.383 3.73-0.805 3.85-0.748 0.675 0.332 1.43 1.47 1.35 2.39-0.0694 0.805-0.514 1.38-1.54 1.87-0.144 0.0687-1.35-0.78-2.58-0.419-1.42 0.416-3.15 2.41-4.02 2.81-0.111 0.0514-0.435 0.431-1.19 0.538-0.715 0.101-1.85-0.0739-2.39 0.0586-1.01 0.245-27.2 13.3-32.8 16.1-1.09 2.28 2.33 3.01 4.18 3.13 1.89 2.75-2.38 5.47-4.82 5.54-1.91-0.101-4.01 0.549-4.99 2.29-2.47 3.39-6.11 7.11-10.7 6.34-5.37-2.29-10.2-11.2-8.56-15.7z" fill="#0d0d0d" stroke="#fff" stroke-dasharray="0.71734, 1.43468" stroke-width=".717"/>
   <rect x="-93.8" y="65.5" width="4.88" height="6.17" fill="#0d0d0d" fill-rule="evenodd" stroke-width=".207"/>
  </g>
  <g transform="matrix(1.4 0 0 1.4 19.1 -136)">
   <path transform="matrix(.189 0 0 .189 -60 187)" d="m784 217-2e-3 2e-3c-15.2 0.037-17.5 2.38-17.5 2.38l3.48 2.88-2.46 1.3s1.99 4.44 3.51 6.98c1.52 2.53 2.97 9.56 3.27 11 0.303 1.48-1.32 2.48-1.42 4.02-0.104 1.53 2.3 2.73 2.3 2.73l1.27 39.8s-2.49 0.608-2.38 2.46c0.114 1.86 1.34 2.36 1.96 2.64 0.619 0.277 1.67 4.67 2.35 6.5 0.677 1.82 0.75 6.72 0.75 6.72l-2.22 1.85 2.54 1.86-2.16 1.97 2.33 1.72 8.04 194-1.92 0.293 0.041 1.77 2.11 0.287-0.109 2.06-1.81 0.272 0.0176 1.87 1.95-0.0215-0.107 5.81s-2.97 4.43-2.98 7.44 2.28 4.45 2.28 4.45l1.73 30.2s-2.47 2.8-2.64 4.87c-0.165 2.07 2.27 4.38 2.27 4.38s0.336 3.77 0 6.79-5.31 4.34-5.31 7.03 0.795 4 2.4 4.18-0.344 2.01-2.43 4.2c-2.08 2.19-14.3 0.48-15 4.46-0.677 3.98 3.12 2.9 3.12 2.9v16.8s-2.84-0.308-3.4 2.26c-0.567 2.57 6.36 1.39 6.32 8-0.0417 6.62 6.08 7.86 10.6 7.86 4.47 0 20.9-0.115 20.9-0.115s0.299 5.3 8.24 5.66c7.94 0.361 9.65-5.34 9.65-5.34s12.4 0.183 23.5-1.15c11-1.33 16.6-7.12 16.6-7.12l7.19 3.25 8.78-6.55-9.75-4.85 13.9 0.248-0.0156-3.68-14.2 0.301-2.02-4.13 14.8-0.0703 0.443-3.4h-16.4l-0.4-2.89 17.8-2.06v-3.87l-16.6 1.6s21.2-53.4 41.9-106l25.1 26.2 93-22.1c-0.854 10.5-1.97 25.7 5.04 29.8 8.09 4.82 21.6-0.599 35.9-4.94 17.6-4.43 23.7-14.5 43.1 5.23 19.4 19.8 5.95 57-1.91 66.8-7.63 12-39.6 25.5-39.6 25.5s84.6 7.36 83.7-3.06c-0.881-10.4 8.95-13.6 14.8-16.1 5.88-2.44-15.1 8.19-10.6 21.4-54.4 13.1 168 4.59 103-0.344-8.98-0.684-27-10.6-14.4-17.7 0 0 13.8 8.51 20.8 14.8 3.7 3.34 29.3 2.46 49.4 0.205 17.6-1.97 58.4-3.69 58.4-3.69s-41.8-1.27-53.9-16c-27.8-34-40.7-81.2-47.1-97.8-7.52-19.5-11.5-46.8-57.3-50.7-45.8-3.95-55.7 52.8-93.9 28.5-38.1-24.3-82.3-68.7-82.3-68.7v2e-3c-2.74 6.08-7.28 15.2-12 24.6l-56.2 5.31-34.5-19.9c15.8-40 29.6-74.8 32-80.9 6.88-17.9 0.598-27.6-1.73-30.3-2.33-2.62-14.8-14.5-41.2 13.7-26.3 28.2-30.2 4.86-36.8-7.97-6.64-12.8-7.29-49.1-33.1-73.5-25.8-24.5-54.4-21.3-54.4-21.3l-0.25-1.6 2.59-1.41-0.197-2.35s-5.53-1.45-20.7-1.41zm32 60.4c5.98-0.0771 14.1 1.54 21.1 6.83 11.3 8.46 17.2 27.8 29.4 54.9s28.8 29.6 40 29.9c11.1 0.356 28.2-16.4 34.1-22.8 5.93-6.38 10.6-12.9 11.6-14 1.02-1.12-1.93-3.16-1.96-4.67-0.037-1.51 4.85-4.79 6.14-0.963 1.29 3.82-1.26 7.58-1.26 7.58s-23 35.6-47 72.8l-46.6-26.8 43.2 32.1c-8.92 13.8-17.4 26.9-25.4 39.3l-52.3-40.1 46.7 48.7c-10.9 16.9-19.4 30.2-21.9 34.2-9.54 15.1-29.4 43.2-37 57.6-7.58 14.4-6.59 10.4-6.59 10.4l-0.719-30.3s2.16-1.62 1.91-4.62c-0.25-3-3.56-7.17-3.56-7.17l-0.576-5.78 1.94-0.137-0.135-1.86-1.82-0.125-0.275-2.04 2.08-0.457-0.0996-1.77-1.94-0.137-7.67-194 2.19-1.9-2.31-1.79 2.38-2.06-2.36-1.67s-0.323-4.89 0.205-6.76 1.22-6.34 1.82-6.67c0.594-0.326 1.78-0.924 1.74-2.78l-0.852-1.59s4.02-7.1 7.78-9.35c1.41-0.846 4.25-1.5 7.84-1.55zm118 156 48.7 36.2 43.6-26.7c-8.29 16.2-16.5 31.6-16.5 31.6s0.139 1.26 3.74 4.12l-79 14.6-18.6-14.2c6.42-16.2 11.9-30.1 18.1-45.6z" fill="#0d0d0d"/>
   <g fill="none" stroke="#0d0d0d">
    <g stroke-width=".327">
     <path d="m93.4 234 2.27 58.5"/>
     <path d="m96 234 2.27 58.5"/>
     <path d="m98.7 234 2.27 58.5"/>
    </g>
    <g stroke-width=".268">
     <path d="m101 243 2.27 39.4"/>
     <path d="m104 243 2.27 39.4"/>
     <path d="m106 243 2.27 39.4"/>
    </g>
    <path d="m109 252 2.27 22.4" stroke-width=".202"/>
    <path d="m112 252 2.27 22.4" stroke-width=".202"/>
   </g>
   <path d="m129 258-5.62-1.13-0.102 14 0.593 0.188 2.51 6.01 2.08 2.98 1.48-0.235 1.66-2.3 2.17-5.98 0.591-1.06 1.02-0.316-1.71-13.7z" fill="#fff"/>
   <g fill="#0d0d0d">
    <path transform="matrix(.189 0 0 .189 -60 187)" d="m1014 304c-3.16-2.4e-4 -6.64 1.84-10.5 5.81-0.851 0.881-2.47 61.9-3.75 61.9-1.14 0-2.53-61.2-3.35-62-61-54.9-38.3 317-38.3 317s5.65-89.7 10.4-159c1.06-15.7 1.97-30.3 3.13-43 4.34 3.25 16.3 0.126 20.8-5.18 4.67-5.52 1.58-16.5 0.758-19.9-0.7-2.95-11.7-4.65-18-1.77 4.02-20.3 10.8-29.2 24.6-19.5 10.5-10.1 17.6-1.84 22.6 16.7-6.76-1.4-16.9 0.0571-19.2 5.47-3.43 5.45-1.89 15.3 2.5 21.1 3.65 4.82 16.7 2.94 22.6 0.613 4.44 33.2 5.16 78.4 6.54 118 1.66 47.3 6.6 87 6.6 87s14.4-323-27.4-323z" fill-rule="evenodd" stroke-width="2.22"/>
    <path d="m129 267c-0.553 0.186-0.456 1.79-0.67 2.77-0.214 0.98-0.612 1.74-0.0819 1.79 0.53 0.0534 0.323-0.824 0.948-0.866 0.625-0.0418 0.397 0.812 1.06 0.689 0.664-0.122-0.313-1.61-0.371-2.44-0.0586-0.824 0.27-2.18-0.887-1.95z"/>
    <path transform="matrix(.189 0 0 .189 -60 187)" d="m1034 437-7.66 3.95c-1.79 4.04-3.28 7.78-4.41 11.1-1.66 4.85-3.6 10.7-5.76 16.4l-5.57 0.0937 0.266-5.14-2.08-0.113-0.273 5.29-3.87 0.0645 1.4-6.55-2.37-0.506-1.51 7.1-4.02 0.0664-0.811-7.77-2.61 0.277 0.787 7.53-4.35 0.0723-1.73-4.75-2.1 0.754 1.47 4.03-6.06 0.102c-2.63-5.62-4.96-11.4-6.69-16-1.1-3.32-2.52-6.57-3.31-9.98l-6.21-2.06-0.619 1.87 5.22 1.74c0.363 1.46 1.36 4.54 3.07 9.13 1.82 4.87 4.28 11 7.1 16.9s5.98 11.7 9.24 16c1.63 2.16 3.28 3.95 4.98 5.22s3.48 2.03 5.29 1.93c3.59-0.204 6.58-3.4 9.34-7.81s5.3-10.2 7.58-16.2c2.29-5.96 4.33-12.1 6.04-17.1 1.69-4.94 3.12-8.81 3.99-10.2l7.13-3.67zm-18.6 33.4c-2.13 5.42-4.45 10.6-6.88 14.5-2.64 4.21-5.39 6.74-7.79 6.88-1.18 0.0671-2.52-0.436-3.99-1.54-1.47-1.1-3.04-2.77-4.6-4.84-2.9-3.84-5.79-9.05-8.42-14.5l5.83-0.0957 1.82 5 2.08-0.764-1.56-4.28 3.83-0.0625 0.902 8.64 2.6-0.268-0.875-8.42 3.38-0.0566-1.39 6.53 2.37 0.494 1.51-7.07 4.19-0.0684-0.221 4.3 2.08 0.104 0.228-4.44z" color="#000000" color-rendering="auto" dominant-baseline="auto" image-rendering="auto" shape-rendering="auto" solid-color="#000000" stop-color="#000000" style="font-feature-settings:normal;font-variant-alternates:normal;font-variant-caps:normal;font-variant-east-asian:normal;font-variant-ligatures:normal;font-variant-numeric:normal;font-variant-position:normal;font-variation-settings:normal;inline-size:0;isolation:auto;mix-blend-mode:normal;shape-margin:0;shape-padding:0;text-decoration-color:#000000;text-decoration-line:none;text-decoration-style:solid;text-indent:0;text-orientation:mixed;text-transform:none;white-space:normal"/>
   </g>
  </g>
  <g transform="matrix(-1.52 0 0 1.52 -352 115)">
   <path transform="matrix(-.174 0 0 .174 -195 12.4)" d="m148 211c-2.69 8e-3 -5.62 0.337-8.88 0.988-12.1 4-49.8 9.26-61.7 11.4-5.66 1.02-9.14 4.16-10.8 7.93-3.14 0.146-6.86 1.46-11.5 4.65-11.5 7.95-2.98 26.9-18.9 24.2-14.6-2.5-1.06-23.4-17-23.9-15.9-0.531-23.3 20.8-16.5 22.8 5.78 1.78 0.582-14.9 14.4-15.4 7.08-0.243 3.54 9.44 5.69 16.3 2.08 6.6 9.11 12.4 23.7 8.69 12.2-3.08 10.3-18.9 18.4-23.2 0.747-0.388 1.5-0.706 2.25-0.992 1.69 2.91 4.45 4.97 8.04 5.09 12.4 0.419 15.3 36.8 16 50.7 0.752 13.9 15.9 42.3 20.6 48.6 3.63 4.79 6.5 10.1 10.8 15.1 0.634 1.35 1.73 3.05 3.38 5.17 11 14.1 0.081 8.56-18.5 39.8-18.5 31.2 11.6 79.6-37.5 116-24.6 21.2-26.5 79.2 34.2 77.7 18 1.06 83.3 1.2 103 0.141 30.9 1.19 76.3-14.4 76.5-36.8-0.531-11.2-9.03-25.5-26.6-28.7-17.5-3.19-101 9.77-117-8.7-3.41-3.94 8.96-17.9 18.4-35 1.29 1.94 2.49 3.86 3.58 5.75 12 15 20.7 21.4 34.1 22.9 13.4 1.5 37-16.3 53.5-33.3 9.21-9.47 24.9-28 37.1-42.7 2.4 1.88 1.75 8.43 3.37 11.2 1.39 6.42-3.29 8.76 0.0449 15.7 0.609 5.68 2.13 12.6 2.9 16 2.79 4.29 2.95 10.4 4.54 15.5 6.39-1.22-1.68 6.83 2.88 11.1 5.63 7.81-6.96 11.7 0.0664 18.7 1.24 8.19 7.19 6.46 12.8 6.74 6.88 5.82 15.9 12.1 24.6 5.67 11-2.73 16.1-15.2 13.9-25.6-2.95-23.7-12.9-47.4-7.23-71.4 0.304-9.91 9.08-3.59 14.4-6.44 2.3-9.45-8.78-16.4-15.3-21.6-7.11-3.62-16.7-11.3-24.5-5.85 1.81 7.5 4.29 15.2 0.316 23.2-0.486 5.04-2.53 13.5-7.24 5.39-4.94-0.391-4.03-5.95-5.53-9.51-0.886-3.34-1.77-6.68-2.66-10 8.93-2.78-1.17-13.1-5.09-15.9 0.532-7.83-5.79-12.7-7.55-19.6-4.46-8.58-6.96-18.6-9.84-28-1.44-7.68-12.8-16.5-4.09-23.4-1.72-2.02-7.01 1.63-6.65-4.77-0.25-10.2-11.1-19.3-21.1-14.5-8.94 2.11-13.1 9.88-20.3 13.7-10.3 4.57-23.5-3.41-32.6 4.94-0.608 0.175-1.2 0.4-1.76 0.654l-0.135-0.129s3.38-1.88 4.88-6.76c0.771-2.51-13.8-6.2-14.9-9.2-1.11-2.85-4.04-10.7-4.04-10.7s5.45-1.88 13-5.64c6.42-3.21-22.5-25.6-22.5-25.6s17.8-37 5.81-51c-10.5-12.3-17.8-18.4-29.4-18.3zm106 118c3.65 0.139 6.71 1.92 7.7 6.6-2.26 4.62 1.45 12.5 1.89 18.9 1.7 6.64 1.87 15.3 6.51 18.6 1.51 7.16 4.52 14.3 3.21 21.6-17.4 17.3-45.8 45.1-53 47.6-6.28 2.24-25.9-1.67-42.5-5.2-4.56-7.43-12-18.2-21.7-23.4-0.317-2.82-0.682-5.88-1.34-9.74-2.38-14 3.75-18.6 10.3-19.8 17.4 3.7 34.7 4.06 39-3.66 4.49-8.06-7.51-14.3-7.51-14.3s-0.751-9.39 3.01-8.64c3.76 0.751 5.26-0.375 6.39-3.38 1.13-3.01-3.38-8.64-3.38-8.64l-1.02-0.971c6.55 0.986 12.4-1.84 19.6-4.12 6.57-1.57 13.2-2.9 19-6.72 3.49-2.52 9.15-5.05 13.8-4.87zm21.5 73.9c1.25 6.68 1.35 13.8 4.08 19.6 2.12 5 1.99 12 3.27 17.5-28.4 18.8-75.7 49-81.9 44.8-5.12-3.41-9.54-10.9-13.4-20.4 16.9 0.462 32.5-0.299 37.3-2.48 16.4-2.24 37.7-35.8 50.7-59zm36 43.1c1.43-0.168 3.42 12.1-0.918 3.8 0.161-2.73 0.518-3.75 0.918-3.8zm3.8 6.95c0.625 3e-3 1.42 0.548 2.4 1.85-0.559 6.29 4.43 18.3 0.674 21.2-1.15-3.28-2.04-6.65-2.95-10-2.35-2.94-2.84-13.1-0.127-13.1z" fill="#0d0d0d"/>
   <g fill-rule="evenodd" stroke-width="1.08">
    <g fill="#fff">
     <path transform="matrix(-.174 0 0 .174 -195 12.4)" d="m178 282c-0.867 0.439-1.82 0.794-2.83 1.06a14.1 10.2 11.4 0 0 2.83-1.06z" stop-color="#000000" style="font-variation-settings:normal"/>
     <path transform="matrix(-.174 0 0 .174 -195 12.4)" d="m180 280c-0.677 0.596-1.45 1.12-2.31 1.56a14.1 10.2 11.4 0 0 2.31-1.56z" stop-color="#000000" style="font-variation-settings:normal"/>
     <path transform="matrix(-.174 0 0 .174 -195 12.4)" d="m182 278c-0.446 0.736-1.01 1.41-1.68 2.01a14.1 10.2 11.4 0 0 1.68-2.01z" stop-color="#000000" style="font-variation-settings:normal"/>
     <path transform="matrix(-.174 0 0 .174 -195 12.4)" d="m183 276c-0.175 0.868-0.499 1.68-0.945 2.42a14.1 10.2 11.4 0 0 0.945-2.42z" stop-color="#000000" style="font-variation-settings:normal"/>
     <path transform="matrix(-.174 0 0 .174 -195 12.4)" d="m183 273c0.158 0.928 0.158 1.87-0.0312 2.81a14.1 10.2 11.4 0 0 0.0312-2.81z" stop-color="#000000" style="font-variation-settings:normal"/>
     <path transform="matrix(-.174 0 0 .174 -195 12.4)" d="m182 270c0.466 0.868 0.79 1.77 0.953 2.69a14.1 10.2 11.4 0 0-0.953-2.69z" stop-color="#000000" style="font-variation-settings:normal"/>
     <path transform="matrix(-.174 0 0 .174 -195 12.4)" d="m180 268c0.741 0.777 1.36 1.61 1.83 2.49a14.1 10.2 11.4 0 0-1.83-2.49z" stop-color="#000000" style="font-variation-settings:normal"/>
     <path transform="matrix(-.174 0 0 .174 -195 12.4)" d="m177 266c0.964 0.635 1.83 1.35 2.57 2.12a14.1 10.2 11.4 0 0-2.57-2.12z" stop-color="#000000" style="font-variation-settings:normal"/>
    </g>
    <path transform="matrix(-.174 0 0 .174 -195 12.4)" d="m177 266c-0.972 0.444-1.94 1.32-2.75 2.5-0.818 1.18-1.49 2.65-1.88 4.28-0.195 0.816-0.319 1.67-0.356 2.55-0.0363 0.878 0.0136 1.78 0.17 2.68 0.156 0.906 0.419 1.82 0.803 2.72 0.383 0.898 0.886 1.78 1.53 2.64a14.1 10.2 11.4 0 0 0.0195-4e-3c1.01-0.261 1.96-0.616 2.83-1.06a14.1 10.2 11.4 0 0 0.0215-0.01c0.861-0.438 1.64-0.963 2.31-1.56a14.1 10.2 11.4 0 0 0.0449-0.0371c0.671-0.598 1.24-1.27 1.68-2.01a14.1 10.2 11.4 0 0 0.0215-0.0332c0.446-0.746 0.771-1.56 0.945-2.42 0.189-0.938 0.189-1.88 0.0312-2.81a14.1 10.2 11.4 0 0-0.01-0.0566c-0.164-0.92-0.487-1.82-0.953-2.69a14.1 10.2 11.4 0 0-0.0176-0.0352c-0.473-0.874-1.09-1.71-1.83-2.49a14.1 10.2 11.4 0 0-0.0156-0.0176c-0.738-0.772-1.6-1.48-2.57-2.12a14.1 10.2 11.4 0 0-0.0332-0.0215z" fill="#0d0d0d" stop-color="#000000" style="font-variation-settings:normal"/>
    <path transform="matrix(-.174 0 0 .174 -195 12.4)" d="m167 263a14.1 10.2 11.4 0 0-12.2 7.64 14.1 10.2 11.4 0 0 11.8 12.8 14.1 10.2 11.4 0 0 7.98-0.135c-0.644-0.856-1.15-1.74-1.53-2.64-0.383-0.898-0.646-1.81-0.803-2.72s-0.206-1.81-0.17-2.68 0.161-1.73 0.356-2.55c0.39-1.63 1.06-3.1 1.88-4.28 0.817-1.17 1.78-2.05 2.75-2.5a14.1 10.2 11.4 0 0-6.43-2.59 14.1 10.2 11.4 0 0-3.67-0.379z" fill="#fff" stop-color="#000000" style="font-variation-settings:normal"/>
   </g>
  </g>
  <g transform="matrix(1.09 0 0 1.09 -160 -104)">
   <path transform="matrix(.243 0 0 .243 97.5 212)" d="m500 84.2-10.3 5.85-15.5 0.205-6.59 9.38-9.12-1.78-2.5 13.1-9.87 7.09-0.94 9.97-4.07 9.26 6.61 11.8-5.45 15 12 4.56 0.4 22 15.2 5 9.3 7.13 10.6-3.82 9.3 4.34 9.44-4.17 11.9-10.1 4.76-9.59 11.9-4.85-0.82-14.8 10.2-9.89-4.26-6.86 6.16-13.2-12.5-7.46-0.533-14.9-8.42-4.2-3.6-7.14-13.2-0.0859zm-88.8-3.18-30.9 57 9.76 65.1s13.9 13.6 26.8 23.1c15.2 11.2 29.6 19.4 28.9 33.2-7.73 34.2 30.5 109 30.5 109 0.749 8.68 2.23 17.3 4.61 25.7 0.35 0.618 0.657 1.24 0.922 1.85l1.58 7.85c0.153 6.77-1.97 13.5 0.223 20.4-3.39 15.2-7.54 30.2-11.9 45.2-1.91 9.63-5.11 3.03-7.07-2.41-4-15.7-10.3-31.2-9.63-47.6-4.35-7.64 0.937-16.8 2.41-25.8 6.18-21.2 4.34-43.3 4.48-65-0.663-9.37 4.58 8.36 4.19-1.79-1.72-9.44-3.27-18.9-4.7-28.5 0.142-11.2-11.9-14.9-20.6-18-18.4-4.35-39.3-4.68-56 5.27-11.2 3.66-8.06 15.3-4.48 23-1.98 24.6-3.5 49.8 3.08 73.8 1.28 11.4 10.3 23.5 8.23 34.2-4.25 8.88 2.64 19.1-2.66 28.4-2.32 10.1-4.92 20.4-8.56 29.9 7.02 5.91 5.96-9.52 7.35-13.8 4.38-8.26 5.42-14 7.52-23.8 5.74-4.57 14.4 8.06 21.6 9.49 1.18 17.8 1.11 35.7 1.62 53.6 1.2 5.83-4.38 24.8 6.03 17.5-1.04-21-1.45-42.2-1.64-63.4-2.83-9.3 5.24-8.21 11.6-9.96 7.5-0.643 17-21.1 19.3-5.73 1.25 11 5.86 17.9 8.62 28.6-3.44 10.6 15 17.8 12.2 3.02 1.2-7.88 4.22-18.3 8.18-23.3 0.187-5.38 1.8-28.3 9.63-16.7 0.816 8.61 8.28 13.4 16.1 14.9-0.68 15.2-1.21 30.4-1.81 45.6 2.17 8.95-5.7 23.2 1 29v2e-3c1.32 0.904 3.21 0.247 3.79-1.11-0.0162-21 0.693-42 1.72-62.9 0.786-4.82-1.61-12.6 5.99-11.4 11.5 0.718 10.5-12.7 18.3-15.6 3.05 5.02 5.69 16.2 3.71 22.4 5.96 5.33 5.86 16 6.92 23.7-2.96 9.67 11.6 9.28 3.82 0.123-4.25-16.2-7.26-32.8-9.98-49.2 6.02-7.24-2.91-14.3 1.13-21.2 9.16-25.2 11.5-52.4 9.41-79 6.42-6.74-4.75-17.9-1.23-26.8 6.08-10.5-7.19-16.9-15.4-19.5-6.04-1.29-12.4-2.22-18.7-2.49 0 0 1.9-15.9 14.8-21.8 13.2-6 32.5 0.974 32.5 0.974l22.3-66.9 23.6-25.8-33.2 21.9-26.6 40.2-25.2-12.5-12.7-5.54-3.52-4.66-10.4 4.69-9.67-5.09-10.7 4.29-11.6-8.4 0.318 12.3-10.6 2.4s-8.93-5.09-16.8-7.78-30.1-7.59-30.1-7.59-2.62-11.8-5.9-21.6c-3.28-9.77-13.8-37.1-13.8-37.1zm48.4 222c2.87-0.209 1.58 12.3 2.67 15.4-2.62 3.82-4.37-10.6-5.41-13 1.19-1.67 2.07-2.39 2.73-2.44zm25.8 111 0.834 4.16c-4e-4 2e-3 4e-4 4e-3 0 6e-3 -4.21 1.89-2.31-3.06-0.834-4.16zm55.6 3.16c1.05-0.0267 2.1 1.03 0.857 3.9-3.55-2.04-2.2-3.87-0.857-3.9zm-88.9 2.44c0.301 0.0369 0.883 0.907 1.86 3.31-1.13 3.97-2.76-3.42-1.86-3.31zm-57.2 0.418c1.07 0.0183 1.44 1.37-0.779 4.97-0.124-0.0114-0.798 3.74-1.77 1.88-2.97-3.2 0.769-6.88 2.55-6.85zm142 2.2c0.155 0.0203 0.323 0.283 0.48 0.939-1.59 3.42-1.15-1.03-0.48-0.939zm-88 1.44c1.36 0.0999 2.28 3.25-0.568 5.7-3.41 3.09-2.73 0.271-1.62-1.77 0.409-2.95 1.38-3.98 2.19-3.92zm-50.7 2.57c0.466 6.1e-4 1.19 0.762 2.22 2.8l0.658 1.4 0.486 1.18c-3.35 4.31-5.03-5.39-3.36-5.38z" fill="#0d0d0d"/>
   <ellipse transform="matrix(.999 -.0476 .0462 .999 0 0)" cx="199" cy="257" rx="1.97" ry=".536" fill="#fffbfb"/>
   <ellipse cx="221" cy="247" rx="2.98" ry=".858" fill="#fffbfb" stroke-width="1.07"/>
   <path d="m216 245c-1.34 4e-5 -2.63 0.867-2.63 3.44-0.482 1.03-1.97 2.34-1.24 3.21 0.591 0.675 0.28 0.0349 1.07 0.773 0.42 0.608 0.933 0.517 1.46 0.519 0.544-5.8e-4 1.07 0.0704 1.5-0.573 0.507-0.71 1.48-0.0468 2.05-0.698 0.713-0.815 1.16-1.64 0.147-2.48-4.72-3.78 1.8-3.99-2.36-4.19z" fill="#fcfcfc"/>
   <g fill="#fff">
    <path d="m210 253s-1.73 0.0747-2.03-0.554c-0.233-0.5-0.392-1.54 0.194-2.17 0.586-0.624 3.62-1.52 3.24-0.952-2.52 0.99 0.81 3.38-1.41 3.67z"/>
    <path d="m219 249s3 1.45 5.43-0.546c0.761 0.544-0.78 6.19-2.24 6.76-1.46 0.567 0.223-3.51-1.75-3.37-1.92-0.0593-1.07-0.967-1.44-2.84z"/>
    <path d="m210 255c-0.699 0.656 2.38 1.51 3.84 1.6 1.46 0.0854 4.77-0.303 5.56-0.69 0.788-0.387 1.57 0.628 1.48 0.996-0.0872 0.368-1.68 1.37-2.41 1.14-0.726-0.23 0.581-1.04-0.928-1.08-0.702-0.0199-2.29 1.3-3.47 1.34-1.36 0.0415-2.3-1.21-2.66-1.48-0.67-0.495-0.787 0.607-1.3 0.572-0.51-0.0347-0.601 0.0563-0.555-0.796s-0.928-1.81 0.444-1.6z"/>
    <path d="m211 254s1.93-0.0476 2.21 0.164c0.276 0.212 0.38 0.831 0.78 0.859 0.399 0.0277 0.61-0.995 1.03-0.995s3.53-0.197 3.99 5e-3c0.462 0.202-3.31 1.95-5.71 1.71-2.4-0.244-1.2-1.04-2.3-1.74z"/>
   </g>
  </g>
 </g>
</svg>
